<svg width="32" height="22.32" overflow="visible" version="1.1" xmlns="http://www.w3.org/2000/svg">
  <linearGradient id="a" x2="200.97" y1="239.41" y2="239.41" gradientUnits="userSpaceOnUse">
    <stop stop-color="#575757" offset="0"/>
    <stop offset="1"/>
  </linearGradient>
  <linearGradient id="b" x1="59.991" x2="325.45" y1="89.017" y2="89.017" gradientUnits="userSpaceOnUse">
    <stop stop-color="#666" offset="0"/>
    <stop offset="1"/>
  </linearGradient>
  <linearGradient id="c" x1="244.44" x2="425.53" y1="131.06" y2="131.06" gradientUnits="userSpaceOnUse">
    <stop stop-color="#616161" offset="0"/>
    <stop offset="1"/>
  </linearGradient>
  <path d="m17.422 9.9966s-10.444 3.3266-12.51 3.3618c0 0-0.04952 0.9438 0.54392 2.956 0.67147 0.2393 8.3239-1.7128 9.1754-2.16 3.4136-1.7923 2.2927-2.6986 10.572-5.578 0 0-0.1576-0.71873-0.7855-1.736 0 0-3.0505 2.0752-6.9952 3.1563z" fill="#fff"/>
  <path d="m5.556 16.284c-0.26933-0.3578-0.65571-2.5943-0.65571-2.5943s-5.4752 2.3798-4.8503 6.35c0.29334 1.8651 1.8816 2.1195 2.5613 2.1968 1.4705 0.1673 3.6072-0.9574 4.8248-1.8051 2.4488-1.7061 3.7669-3.3528 7.6434-6.5189 0 0-5.4872 2.0925-9.5228 2.3715z" fill="url(#a)"/>
  <path d="m4.9115 13.358s-2.1232-7.8468 3.091-10.833c1.7413-0.99707 5.1249-2.0857 6.8077-2.3085 1.6835-0.22357 5.6485-0.9288 7.6877 2.4338 0.745 1.2289 1.7143 3.4023 1.9191 4.1901-2.1299 2.3227-17.144 6.3688-19.506 6.5189z" fill="url(#b)"/>
  <path d="m18.34 12.058s3.5509-0.7022 8.1934-0.886c3.7107-0.147 5.8436-1.6873 5.3185-2.4795-0.526-0.79225-4.5555-3.2118-13.512 3.3655z" fill="url(#c)"/>
  <path d="m31.971 8.6026s-5.5691-6.3388-23.179 10.499c-3.9418 3.1308-7.6607 3.6807-8.609 1.3917 0.75324 2.1832 2.9049 2.1457 5.5638 1.2559 3.4796-1.1644 8.3081-5.7656 8.9158-6.2195 4.764-3.5554 12.911-9.2925 17.245-6.3988 0 0 0.1538-0.28209 0.0631-0.52892z"/>
</svg>
