<svg width="64.001" height="44.642" overflow="visible" version="1.1" xmlns="http://www.w3.org/2000/svg">
  <linearGradient id="a" x2="200.97" y1="239.41" y2="239.41" gradientUnits="userSpaceOnUse">
    <stop stop-color="#575757" offset="0"/>
    <stop offset="1"/>
  </linearGradient>
  <linearGradient id="b" x1="59.991" x2="325.45" y1="89.017" y2="89.017" gradientUnits="userSpaceOnUse">
    <stop stop-color="#666" offset="0"/>
    <stop offset="1"/>
  </linearGradient>
  <linearGradient id="c" x1="244.44" x2="425.53" y1="131.06" y2="131.06" gradientUnits="userSpaceOnUse">
    <stop stop-color="#616161" offset="0"/>
    <stop offset="1"/>
  </linearGradient>
  <path d="m34.845 19.994s-20.888 6.6533-25.021 6.7238c0 0-0.09903 1.8876 1.0879 5.912 1.343 0.4786 16.648-3.4257 18.351-4.32 6.8273-3.5847 4.5855-5.3973 21.145-11.156 0 0-0.3151-1.4375-1.5711-3.4722 0 0-6.101 4.1504-13.991 6.3126z" fill="#fff"/>
  <path d="m11.112 32.57c-0.5387-0.7157-1.3115-5.1887-1.3115-5.1887s-10.951 4.7596-9.7007 12.7c0.5867 3.7303 3.7633 4.2389 5.1227 4.3935 2.941 0.3346 7.2144-1.9146 9.6497-3.6102 4.8977-3.4121 7.534-6.7057 15.287-13.038 0 0-10.975 4.1849-19.046 4.7431z" fill="url(#a)"/>
  <path d="m9.8226 26.718s-4.2464-15.694 6.1821-21.667c3.4827-1.9942 10.25-4.1714 13.616-4.617 3.3672-0.44715 11.297-1.8576 15.376 4.8676 1.49 2.4578 3.4286 6.8048 3.8382 8.3803-4.2599 4.6456-34.289 12.738-39.011 13.038z" fill="url(#b)"/>
  <path d="m36.68 24.117s7.1019-1.4045 16.387-1.7721c7.4214-0.2941 11.687-3.3746 10.637-4.9591-1.0519-1.5846-9.111-6.4237-27.024 6.7312z" fill="url(#c)"/>
  <path d="m63.943 17.206s-11.138-12.678-46.358 20.998c-7.8836 6.2616-15.322 7.3615-17.218 2.7834 1.5065 4.3665 5.8099 4.2915 11.128 2.5119 6.9593-2.3288 16.616-11.531 17.832-12.439 9.5282-7.1108 25.822-18.585 34.49-12.798 0 0 0.3076-0.5642 0.1261-1.0579z"/>
</svg>
